<svg width="1200" height="800" viewBox="0 0 1200 800" fill="none" xmlns="http://www.w3.org/2000/svg">
<g clip-path="url(#clip0)">
<path d="M324 299.459V454.025L343.888 454.086V380.48H391.84V361.024H343.888V318.905H406.338V299.449L324 299.459Z" fill="white"/>
<path d="M442.135 330.836C449.298 330.836 455.105 325.028 455.105 317.865C455.105 310.702 449.298 304.895 442.135 304.895C434.972 304.895 429.164 310.702 429.164 317.865C429.164 325.028 434.972 330.836 442.135 330.836Z" fill="white"/>
<path d="M432.02 350.291V454.056H451.908V350.291H432.02Z" fill="white"/>
<path fill-rule="evenodd" clip-rule="evenodd" d="M525.671 347.264C499.261 347.264 480.83 369.6 480.83 396.119C480.83 422.639 499.261 444.975 525.671 444.975C537.762 444.975 547.726 440.294 554.978 432.674V446.488C554.978 463.68 541.474 478.05 523.849 478.05C517.514 478.05 511.22 475.594 506.205 472.138L496.24 489.397C504.199 494.528 513.676 497.505 523.849 497.505C552.026 497.505 574.866 474.664 574.866 446.488V350.29H554.978V359.565C547.726 351.945 537.762 347.264 525.671 347.264ZM500.718 396.119C500.718 379.658 513.31 366.719 527.833 366.719C542.357 366.719 554.948 379.658 554.948 396.119C554.948 412.58 542.357 425.519 527.833 425.519C513.31 425.519 500.718 412.58 500.718 396.119Z" fill="white"/>
<path d="M646.529 366.719C634.769 366.719 625.236 376.685 625.236 388.445V454.055H605.348V350.29H625.236V359.796C631.063 352.262 639.648 347.264 650.852 347.264C664.788 347.264 675.484 354.185 681.679 364.778C688.567 354.546 699.803 347.264 713.327 347.264C735.963 347.264 750.052 365.526 750.186 388.12C750.186 388.189 750.186 388.257 750.186 388.326V388.33V388.333V388.337C750.186 388.373 750.186 388.409 750.186 388.445V454.055H730.297V388.445C730.297 376.685 720.764 366.719 709.004 366.719C697.243 366.719 687.711 376.685 687.711 388.445V454.055H667.823V388.445C667.823 376.685 658.289 366.719 646.529 366.719Z" fill="white"/>
<path fill-rule="evenodd" clip-rule="evenodd" d="M856.113 362.053C847.265 352.917 835.148 347.264 821.092 347.264C791.505 347.264 770.508 372.314 770.508 402.172C770.508 432.03 791.505 457.081 821.092 457.081C835.148 457.081 847.265 451.428 856.113 442.292V454.055H876.001V350.29H856.113V362.053ZM790.396 402.172C790.396 382.364 805.563 366.719 823.254 366.719C840.945 366.719 856.113 382.364 856.113 402.172C856.113 421.981 840.945 437.625 823.254 437.625C805.563 437.625 790.396 421.981 790.396 402.172Z" fill="white"/>
</g>
<defs>
<clipPath id="clip0">
<rect width="552" height="200.1" fill="white" transform="translate(324 299.449)"/>
</clipPath>
</defs>
</svg>
